# File created by Blade
# Date/Time:  Thu Sep 25 15:55:53 2014
# Frame Rate: 120.000 fps
#------------------------------------------------------
:FULLY-SPECIFIED
:DEGREES
943
root -1.755219 32.859220 2.319736 10.811987 -0.788365 -2.512842
Spine -12.328649 5.702725 1.347108
Head -9.229184 -10.731153 13.440972
LeftShoulder -15.074465 22.615634 28.129300
LeftArm 18.239251 -24.461054 -26.252539
LeftForeArm 10.159755 0.000000 11.408261
LeftHand -27.112502 -0.000000 -8.487494
LeftHandThumb1 -26.253704 0.000000 33.147579
RightShoulder -20.727951 10.106347 -40.937213
RightArm -8.350571 10.516232 29.124757
RightForeArm -32.044223 -0.000000 16.417071
RightHand -12.776986 -0.000000 8.073850
RightHandThumb1 -24.326973 -0.000000 -32.862282
LeftUpLeg -5.646353 13.887722 -2.383290
LeftLeg -0.137573 -0.000000 0.000000
LeftFoot -7.483150 -6.380397 -19.506502
LeftToeBase 4.418432 -0.000000 -0.000000
RightUpLeg -6.415469 -3.034257 2.716442
RightLeg 2.395446 -0.000000 -0.000000
RightFoot -9.029514 0.901574 -3.210585
RightToeBase -4.011011 -0.000000 0.000000
944
root -1.758990 32.859647 2.314787 10.798985 -0.783168 -2.512601
Spine -12.317353 5.701984 1.342273
Head -9.189950 -10.791209 13.453191
LeftShoulder -15.065783 22.620784 28.117876
LeftArm 18.224745 -24.450805 -26.236594
LeftForeArm 10.124239 -0.000000 11.465705
LeftHand -27.228868 -0.000000 -8.461538
LeftHandThumb1 -26.253704 0.000000 33.147579
RightShoulder -20.739638 10.097179 -40.904884
RightArm -8.309217 10.477713 29.133618
RightForeArm -32.115163 0.000000 16.398466
RightHand -12.798182 0.000000 8.074934
RightHandThumb1 -24.326973 -0.000000 -32.862282
LeftUpLeg -5.655444 13.918854 -2.379625
LeftLeg -0.113000 -0.000000 0.000000
LeftFoot -7.480587 -6.418669 -19.484161
LeftToeBase 4.480044 -0.000000 -0.000000
RightUpLeg -6.411933 -3.017366 2.723152
RightLeg 2.398587 -0.000000 -0.000000
RightFoot -9.022140 0.862620 -3.221593
RightToeBase -3.999892 -0.000000 0.000000
945
root -1.761741 32.859683 2.309193 10.785458 -0.794364 -2.508531
Spine -12.298273 5.715644 1.330541
Head -9.172606 -10.842037 13.467250
LeftShoulder -15.067615 22.637056 28.101165
LeftArm 18.221819 -24.505423 -26.248493
LeftForeArm 10.152509 -0.000000 11.536600
LeftHand -27.285294 -0.000000 -8.490549
LeftHandThumb1 -26.253704 0.000000 33.147579
RightShoulder -20.761510 10.101070 -40.872982
RightArm -8.236438 10.379070 29.151210
RightForeArm -32.059165 0.000000 16.335211
RightHand -12.901672 -0.000000 7.960714
RightHandThumb1 -24.326973 -0.000000 -32.862282
LeftUpLeg -5.652475 13.895109 -2.377093
LeftLeg -0.107132 -0.000000 0.000000
LeftFoot -7.488629 -6.381077 -19.499465
LeftToeBase 4.457046 -0.000000 -0.000000
RightUpLeg -6.420052 -2.989980 2.724567
RightLeg 2.420229 -0.000000 -0.000000
RightFoot -9.040381 0.839187 -3.212452
RightToeBase -3.917132 -0.000000 0.000000
946
root -1.765565 32.859760 2.303689 10.772990 -0.796209 -2.510449
Spine -12.284954 5.726628 1.326838
Head -9.140673 -10.910050 13.474379
LeftShoulder -15.075907 22.656012 28.096947
LeftArm 18.253029 -24.519344 -26.290481
LeftForeArm 10.023879 -0.000000 11.564133
LeftHand -27.263990 -0.000000 -8.258452
LeftHandThumb1 -26.253704 0.000000 33.147579
RightShoulder -20.787965 10.101418 -40.856156
RightArm -8.202386 10.364045 29.166595
RightForeArm -32.143684 0.000000 16.340311
RightHand -12.857233 -0.000000 7.999824
RightHandThumb1 -24.326973 -0.000000 -32.862282
LeftUpLeg -5.655437 13.889039 -2.367102
LeftLeg -0.091595 -0.000000 0.000000
LeftFoot -7.498344 -6.368216 -19.488604
LeftToeBase 4.464771 -0.000000 -0.000000
RightUpLeg -6.433067 -2.989505 2.733223
RightLeg 2.455076 -0.000000 -0.000000
RightFoot -9.042750 0.828912 -3.234356
RightToeBase -3.953660 -0.000000 0.000000
947
root -1.768742 32.859819 2.299415 10.753447 -0.799974 -2.501607
Spine -12.266001 5.731067 1.316041
Head -9.107840 -10.958267 13.472000
LeftShoulder -15.082413 22.646697 28.082984
LeftArm 18.273709 -24.570206 -26.316702
LeftForeArm 10.145044 -0.000000 11.585463
LeftHand -27.255484 0.000000 -8.329429
LeftHandThumb1 -26.253704 0.000000 33.147579
RightShoulder -20.787751 10.125849 -40.851021
RightArm -8.230527 10.349258 29.185761
RightForeArm -32.251422 -0.000000 16.397451
RightHand -12.840940 -0.000000 7.989254
RightHandThumb1 -24.326973 -0.000000 -32.862282
LeftUpLeg -5.658277 13.945606 -2.370156
LeftLeg -0.065246 -0.000000 0.000000
LeftFoot -7.473654 -6.442368 -19.504880
LeftToeBase 4.427243 -0.000000 -0.000000
RightUpLeg -6.435994 -3.010779 2.732594
RightLeg 2.483408 -0.000000 -0.000000
RightFoot -9.062671 0.845215 -3.272905
RightToeBase -3.957253 -0.000000 0.000000
